<?xml version="1.0" encoding="utf-8"?>
<!-- Generator: Adobe Illustrator 18.0.0, SVG Export Plug-In . SVG Version: 6.00 Build 0)  -->
<!DOCTYPE svg PUBLIC "-//W3C//DTD SVG 1.1//EN" "http://www.w3.org/Graphics/SVG/1.1/DTD/svg11.dtd">
<svg version="1.1" xmlns="http://www.w3.org/2000/svg" xmlns:xlink="http://www.w3.org/1999/xlink" x="0px" y="0px"
	 viewBox="0 0 100.1 100" enable-background="new 0 0 100.1 100" xml:space="preserve">
<g id="Layer_2">
	<polygon fill="#FFFFFF" points="25.8,74.9 12.2,22.1 34.2,38.6 50.3,22.1 66.5,38.1 88.2,22.1 74.8,74.9 	"/>
</g>
<g id="Layer_4">
	<line fill="none" stroke="#FFFFFF" stroke-width="4" stroke-miterlimit="10" x1="25.6" y1="77.9" x2="74.9" y2="77.9"/>
</g>
<g id="Your_Icon">
	<g id="Layer_3">
		<circle cx="161.9" cy="50" r="47.6"/>
	</g>
	<defs>
		<filter id="Adobe_OpacityMaskFilter" filterUnits="userSpaceOnUse" x="22.6" y="42.6" width="50.9" height="26.9">
			
				<feColorMatrix  type="matrix" values="-1 0 0 0 1  0 -1 0 0 1  0 0 -1 0 1  0 0 0 1 0" color-interpolation-filters="sRGB" result="source"/>
			<feFlood  style="flood-color:white;flood-opacity:1" result="back"/>
			<feBlend  in="source" in2="back" mode="normal"/>
		</filter>
	</defs>
	<mask maskUnits="userSpaceOnUse" x="22.6" y="42.6" width="50.9" height="26.9" id="SVGID_1_">
		<g filter="url(#Adobe_OpacityMaskFilter)">
		</g>
	</mask>
	<path mask="url(#SVGID_1_)" d="M39.4,57.5c0,0,0.2,4.3,2.9,6.7c0,0,0.4,1.1,0.4,1.6c0,0.4,0,1.6,0,1.9c0.1,0.3-0.1,0.8-0.4,1.1
		C42.1,69,42,69.2,42,69.4l3.1,0c0,0,0.3-0.1,0.1-0.6c-0.2-0.5,0-1.6,0.2-2.4c0.1-0.8,0.3-1.1,0.1-1.6s-0.2-0.7-0.2-0.7s4.3,0,4.6,0
		c0.3,0,0.2,1.2,0.6,1.5c0.4,0.3,0.5,1.6,0.5,1.8c0,0.2,0,0.4-0.4,1.1c-0.4,0.6-0.4,0.6-0.4,0.6l3.1,0.1c0,0,0-0.5,0-1.1
		c0-0.5-0.4-1.4,0-1.8c0.4-0.5,0.6-1.3,0.6-1.5c0-0.2,2.1-0.8,3.2-0.4c1,0.4,4.3,1.4,6.2,2.6c1.9,1.3,9,2,10.3,1.3
		c0,0,0.1-0.2-0.8-0.2c-0.9,0-2.2-0.3-2.5-0.5c-0.3-0.2-5.6-2.6-7.3-4c-1.7-1.4-3.9-4.6-7.4-6.1c-3.5-1.5-3.1-1.9-4.3-2.4
		c-1.2-0.5-1.8-0.7-3-0.9c-1.2-0.1-1.4-0.6-2.1-0.7c-0.7-0.1-0.8-0.3-1.6-0.7c-0.8-0.3-4.2-0.7-4.8-1.5c0,0-2.6-4.8-7.3-7.6
		c0,0-4.4-1.5-6.3-1.2c0,0-1-0.1-1.6,0c-0.5,0.2-0.3,0.3-0.5,0.6c-0.2,0.3-1.5,0.9-1.5,1c0,0.1,0.7,0.9,0.7,0.9s0.5,0,0.7,0
		c0.2,0,1.3-0.3,1.7-0.4c0.4-0.1,0.8-0.1,0.8-0.1s4.8,0.4,6.2,2.3C34.1,48.9,37.8,56.3,39.4,57.5z"/>
</g>
</svg>
